<svg t="1714300570912" class="icon" viewBox="0 0 1024 1024" version="1.1" xmlns="http://www.w3.org/2000/svg" p-id="5794" width="200" height="200"><path d="M841.216 540.16l-125.952-72.704c-4.096-2.048-8.704-2.048-12.8 0l-100.864 57.856-54.784-31.232V429.568l100.352-57.856c4.096-2.048 6.656-6.656 6.656-11.264V215.552c0-4.608-2.56-8.704-6.656-11.264l-125.952-72.704c-4.096-2.048-8.704-2.048-12.8 0L382.976 204.288c-4.096 2.048-6.656 6.656-6.656 11.264v145.408c0 4.608 2.56 8.704 6.656 11.264l97.792 56.32v67.072l-52.736 30.72-100.352-58.88c-4.096-2.048-8.704-2.048-12.8 0l-125.952 72.704c-4.096 2.048-6.656 6.656-6.656 11.264v145.408c0 4.608 2.56 8.704 6.656 11.264l125.952 72.704c4.096 2.048 8.704 2.048 12.8 0l125.952-72.704c4.096-2.048 6.656-6.656 6.656-11.264v-115.712l54.272-31.232 56.32 31.744v115.2c0 4.608 2.56 8.704 6.656 11.264l125.952 72.704c4.096 2.048 8.704 2.048 12.8 0l125.952-72.704c4.096-2.048 6.656-6.656 6.656-11.264v-145.408c-1.024-4.608-3.584-8.704-7.68-11.264z m-445.44 126.976l-74.24 43.008-74.752-43.008v-86.016l74.24-43.008 74.752 43.008v86.016zM440.832 331.264V244.736l74.752-43.008 74.752 43.008v86.016L515.072 373.76 440.832 331.264z m343.04 335.872l-74.24 43.008-74.752-43.008v-86.016l74.752-43.008 74.752 43.008-0.512 86.016z" fill="#f4ea2a" p-id="5795"></path><path d="M623.616 6.656l-5.632-1.024-5.632 0.512c-13.312 2.048-24.064 11.776-26.624 24.576-4.096 17.408 7.168 34.304 24.064 38.4 12.8 2.56 25.088 6.144 37.376 9.728 236.032 74.24 367.104 326.144 292.864 562.176-5.12 16.896 4.096 34.816 20.992 39.936s34.816-4.096 39.936-20.992c4.608-13.824 8.192-28.16 11.264-42.496 61.44-275.968-112.64-549.376-388.608-610.816zM439.296 30.72c-4.096-17.408-20.992-28.16-38.4-24.576-14.336 3.072-28.672 7.168-42.496 11.264-218.624 68.608-358.4 270.848-358.4 488.448 0 50.688 7.68 102.4 23.552 153.6 5.12 16.896 23.04 26.112 39.936 20.992s26.112-23.04 20.992-39.936c-3.584-12.288-7.168-24.576-10.24-37.376C20.992 361.984 173.568 122.88 415.232 69.12c16.896-4.096 28.16-20.992 24.064-38.4z m448.512 776.704c-12.8-11.776-33.28-11.264-45.056 2.048-84.48 92.16-202.752 145.408-330.24 145.408h-0.512c-125.44 0-244.736-52.736-329.216-145.408-11.776-12.8-32.256-13.824-45.056-2.048-12.8 11.776-13.824 32.256-2.048 45.056 96.256 104.96 231.936 165.888 377.344 165.888 143.36 0 280.576-59.904 377.344-165.888 11.264-13.312 10.24-33.28-2.56-45.056z" fill="#FFDB6E" p-id="5796"></path></svg>